<svg xmlns="http://www.w3.org/2000/svg" viewBox="0 0 928.31 139.61"><defs><style>.cls-1{fill:#fff;}</style></defs><title>Asset 1</title><g id="Layer_2" data-name="Layer 2"><g id="Layer_1-2" data-name="Layer 1"><path class="cls-1" d="M391.9,53.09V47.22a46.08,46.08,0,0,0-3.77-18.52A47.3,47.3,0,0,0,363.26,3.78a46.92,46.92,0,0,0-36.88,0,47.07,47.07,0,0,0-25,24.93,46.08,46.08,0,0,0-3.77,18.52v45a46.11,46.11,0,0,0,3.76,18.41,48.8,48.8,0,0,0,10,15,46.91,46.91,0,0,0,15,10.19,46.92,46.92,0,0,0,36.88,0,47.28,47.28,0,0,0,14.87-10.18,48.69,48.69,0,0,0,10-15,46.14,46.14,0,0,0,3.76-18.41V65.75H342.79V82h33V92.26a30.08,30.08,0,0,1-2.46,12.07,32.18,32.18,0,0,1-6.75,10,30.91,30.91,0,0,1-43.73,0,32.25,32.25,0,0,1-6.75-10,29.86,29.86,0,0,1-2.46-12v-45a29.94,29.94,0,0,1,2.46-12,32.21,32.21,0,0,1,6.75-10,31.2,31.2,0,0,1,9.87-6.64,31.48,31.48,0,0,1,24,0,31.52,31.52,0,0,1,9.88,6.64,32.26,32.26,0,0,1,6.74,10,29.87,29.87,0,0,1,2.46,12v5.87Z"/><polygon class="cls-1" points="818.69 3.29 781.43 65.57 744.02 3.29 725.13 3.29 773.24 83.29 773.24 136.15 789.3 136.15 789.3 83.8 837.57 3.29 818.69 3.29"/><path class="cls-1" d="M73.68,30.6a44.52,44.52,0,0,0-9.32-13.89A43.8,43.8,0,0,0,50.49,7.37,42.89,42.89,0,0,0,33.59,4H0V20.79H33.56a26.36,26.36,0,0,1,10.4,2,27.47,27.47,0,0,1,8.59,5.78,26.83,26.83,0,0,1,5.8,8.57A26.41,26.41,0,0,1,52.6,66.33a29.32,29.32,0,0,1-8.68,5.84,25.1,25.1,0,0,1-10.36,2.11H0V135.8H16.64V91.09H33.49a43.33,43.33,0,0,0,16.93-3.38,42.56,42.56,0,0,0,13.85-9.39,45.56,45.56,0,0,0,9.27-13.8,41.93,41.93,0,0,0,3.52-17A43.51,43.51,0,0,0,73.68,30.6Z"/><path class="cls-1" d="M179.91,29.1A47,47,0,0,0,155.17,4.32a46.9,46.9,0,0,0-36.7,0A46.83,46.83,0,0,0,93.63,29.1a45.8,45.8,0,0,0-3.75,18.43V92.07a45.8,45.8,0,0,0,3.74,18.32,46.55,46.55,0,0,0,24.86,24.91,46.69,46.69,0,0,0,36.69,0,46.78,46.78,0,0,0,24.75-24.9,46,46,0,0,0,3.74-18.32V47.53A46,46,0,0,0,179.91,29.1Zm-43.14,93.14A29.13,29.13,0,0,1,125,119.85a31.23,31.23,0,0,1-9.72-6.55,30.3,30.3,0,0,1-6.48-9.59,29.42,29.42,0,0,1-2.31-11.64V47.53a29.49,29.49,0,0,1,2.31-11.64,30.54,30.54,0,0,1,6.48-9.58A31.61,31.61,0,0,1,125,19.75a29.33,29.33,0,0,1,11.74-2.38,28.66,28.66,0,0,1,11.61,2.37A31.3,31.3,0,0,1,164.64,36,28.11,28.11,0,0,1,167,47.53V92.07a28,28,0,0,1-2.38,11.58,31.27,31.27,0,0,1-16.26,16.22A28.27,28.27,0,0,1,136.77,122.24Z"/><polygon class="cls-1" points="213.12 119 213.12 3.97 196.49 3.97 196.49 135.81 284.8 135.81 284.8 119 213.12 119"/><path class="cls-1" d="M722.71,53.89V47.7A45.87,45.87,0,0,0,719,29.27,47,47,0,0,0,694.22,4.49a46.94,46.94,0,0,0-36.7,0,47.61,47.61,0,0,0-14.86,10,48.16,48.16,0,0,0-10,14.78,45.8,45.8,0,0,0-3.75,18.43V92.07a46,46,0,0,0,3.74,18.32,48.74,48.74,0,0,0,10,15,46.73,46.73,0,0,0,14.9,10.13,46.71,46.71,0,0,0,36.7,0A46.94,46.94,0,0,0,709,125.34a48.59,48.59,0,0,0,10-15,46,46,0,0,0,3.74-18.32V65.58H673.47V82.39h32.6v9.74a29.2,29.2,0,0,1-2.39,11.74,31.46,31.46,0,0,1-6.58,9.74,30.35,30.35,0,0,1-9.6,6.48,30.68,30.68,0,0,1-23.36,0,30.36,30.36,0,0,1-9.61-6.47,31.24,31.24,0,0,1-6.57-9.71,29.07,29.07,0,0,1-2.39-11.72V47.76A29.11,29.11,0,0,1,648,36a31.52,31.52,0,0,1,6.57-9.72,30.13,30.13,0,0,1,42.58,0,31.49,31.49,0,0,1,6.57,9.7,29,29,0,0,1,2.39,11.69v6.19Z"/><path class="cls-1" d="M455,20.79,449.37,4H435.78L393.41,135.82H411L421.58,103h43.09l10.94,32.79h17.65ZM427,86.25l15.82-49,16.27,49Z"/><path class="cls-1" d="M585.65,84.35a43.73,43.73,0,0,0,12.68-12.67,42.73,42.73,0,0,0,7.09-24,42.23,42.23,0,0,0-3.5-17,45.35,45.35,0,0,0-9.39-13.85,44.77,44.77,0,0,0-13.8-9.39,42.08,42.08,0,0,0-17-3.52H528V20.79h33.75A26.15,26.15,0,0,1,572.2,22.9a28.69,28.69,0,0,1,8.64,5.8,28,28,0,0,1,5.8,8.59,25.91,25.91,0,0,1,2.14,10.4,26.25,26.25,0,0,1-2.14,10.52,27.2,27.2,0,0,1-5.8,8.66,28.12,28.12,0,0,1-8.64,5.79,26.49,26.49,0,0,1-10.63,2.14H528v61h16.64V91.61H561.5a44.66,44.66,0,0,0,8.55-.85l23.37,45h18.87Z"/><polyline class="cls-1" points="511.28 3.96 511.37 20.79 473.86 20.79 468.27 3.98"/><rect class="cls-1" x="840" y="121.53" width="88.32" height="16.81"/></g></g></svg>